<?xml version="1.0" encoding="UTF-8" standalone="no"?>
<svg
   version="1.1"
   id="Layer_1"
   x="0px"
   y="0px"
   viewBox="0 0 145.88001 75.42"
   xml:space="preserve"
   sodipodi:docname="logoRails.svg"
   width="145.88"
   height="75.419998"
   inkscape:version="1.2 (dc2aedaf03, 2022-05-15)"
   xmlns:inkscape="http://www.inkscape.org/namespaces/inkscape"
   xmlns:sodipodi="http://sodipodi.sourceforge.net/DTD/sodipodi-0.dtd"
   xmlns="http://www.w3.org/2000/svg"
   xmlns:svg="http://www.w3.org/2000/svg"><defs
     id="defs11" /><sodipodi:namedview
     id="namedview9"
     pagecolor="#ffffff"
     bordercolor="#666666"
     borderopacity="1.0"
     inkscape:showpageshadow="2"
     inkscape:pageopacity="0.0"
     inkscape:pagecheckerboard="0"
     inkscape:deskcolor="#d1d1d1"
     showgrid="false"
     inkscape:zoom="7.1182545"
     inkscape:cx="67.36202"
     inkscape:cy="39.335486"
     inkscape:window-width="1920"
     inkscape:window-height="1017"
     inkscape:window-x="-8"
     inkscape:window-y="-8"
     inkscape:window-maximized="1"
     inkscape:current-layer="Layer_1" /><style
     type="text/css"
     id="style2">.st0{fill-rule:evenodd;clip-rule:evenodd;fill:#CC0000;}</style><g
     id="g6"><path
       class="st0"
       d="m 3.79,75.42 h 42.8 c 0,0 -8.18,-37.33 18.91,-52.45 5.91,-2.87 24.71,-13.6 55.48,9.16 0.98,-0.81 1.9,-1.46 1.9,-1.46 0,0 -28.17,-28.12 -59.54,-24.98 C 47.52,7.1 28.12,21.46 16.74,40.42 5.54,59.08 3.84,74.92 3.79,75.41 Z M 48.22,64.58 c 0.11,2.87 0.38,5.2 0.65,6.83 l 6.5,2.33 c -0.49,-2.11 -0.98,-4.5 -1.3,-7.04 z M 8.94,49.3 2.71,47.02 C 1.68,49.35 0.54,52.06 0,53.52 l 6.23,2.28 c 0.7,-1.84 1.84,-4.49 2.71,-6.5 z M 25.3,25.09 21.45,21.73 c -1.41,1.35 -2.76,2.71 -4.01,4.06 l 4.17,3.58 C 22.76,27.9 24,26.44 25.3,25.09 Z m 23.73,25.73 4.39,3.47 c 0.22,-2.11 0.6,-4.23 1.14,-6.34 l -3.9,-3.09 c -0.71,2.01 -1.19,4.01 -1.63,5.96 z m 7.86,-17.45 2.6,3.9 c 0.92,-1.35 2,-2.6 3.2,-3.85 L 60.25,29.74 C 59,30.88 57.86,32.13 56.89,33.37 Z M 45.78,8.99 43.34,5.25 c -1.35,0.7 -2.76,1.46 -4.23,2.33 l 2.49,3.79 c 1.42,-0.86 2.77,-1.67 4.18,-2.38 z m 24.6,14.25 1.25,3.74 c 1.57,-0.76 3.14,-1.41 4.71,-1.9 L 75.15,21.5 c -1.84,0.55 -3.42,1.15 -4.77,1.74 z M 67.78,3.3 c 0.16,0 0.38,0 0.54,0 L 67.24,0 c -1.68,0 -3.41,0.11 -5.2,0.33 l 1.03,3.2 C 64.64,3.36 66.21,3.3 67.78,3.3 Z m 20.05,16.91 -0.22,3.41 c 1.79,0.05 3.58,0.27 5.36,0.65 l 0.22,-3.36 c -1.84,-0.38 -3.63,-0.59 -5.36,-0.7 z M 92.97,8.72 93.19,5.09 C 92.7,4.82 91.35,4.17 87.93,3.19 l -0.22,3.58 c 1.79,0.6 3.53,1.25 5.26,1.95 z"
       id="path4" /></g></svg>
